<?xml version="1.0" encoding="UTF-8"?>
<svg xmlns="http://www.w3.org/2000/svg" xmlns:xlink="http://www.w3.org/1999/xlink" width="px" height="24px" viewBox="0 0 24 24" version="1.1">
<g id="surface1">
<path style=" stroke:none;fill-rule:nonzero;fill:rgb(43.137255%,76.862746%,65.490198%);fill-opacity:1;" d="M 18.886719 4.402344 C 16.121094 4.402344 13.867188 6.652344 13.867188 9.425781 C 13.867188 12.195312 16.121094 14.449219 18.886719 14.449219 C 21.660156 14.449219 23.914062 12.195312 23.914062 9.425781 C 23.914062 6.652344 21.660156 4.402344 18.886719 4.402344 Z M 20.929688 10.128906 L 19.496094 10.128906 L 19.496094 11.5625 C 19.496094 11.929688 19.199219 12.226562 18.835938 12.226562 C 18.472656 12.226562 18.175781 11.929688 18.175781 11.5625 L 18.175781 10.128906 L 16.742188 10.128906 C 16.375 10.128906 16.082031 9.832031 16.082031 9.46875 C 16.082031 9.105469 16.375 8.808594 16.742188 8.808594 L 18.175781 8.808594 L 18.175781 7.375 C 18.175781 7.007812 18.472656 6.714844 18.835938 6.714844 C 19.199219 6.714844 19.496094 7.007812 19.496094 7.375 L 19.496094 8.808594 L 20.929688 8.808594 C 21.296875 8.808594 21.59375 9.105469 21.59375 9.46875 C 21.59375 9.832031 21.296875 10.128906 20.929688 10.128906 Z M 20.929688 10.128906 "/>
<path style=" stroke:none;fill-rule:nonzero;fill:rgb(43.137255%,76.862746%,65.490198%);fill-opacity:1;" d="M 6.726562 14.554688 L 5.5625 20.640625 L 7 21.792969 L 8.4375 20.644531 L 7.253906 14.554688 Z M 6.726562 14.554688 "/>
<path style=" stroke:none;fill-rule:nonzero;fill:rgb(39.215687%,49.803922%,58.039218%);fill-opacity:1;" d="M 11.59375 12.589844 C 10.742188 13.429688 9.660156 14.039062 8.457031 14.324219 L 9.714844 20.761719 C 9.761719 20.988281 9.675781 21.222656 9.496094 21.363281 L 8.957031 21.796875 C 10.460938 21.617188 12.09375 21.226562 13.804688 20.507812 L 13.804688 15.730469 C 13.804688 14.3125 13.074219 13.285156 11.59375 12.589844 Z M 11.59375 12.589844 "/>
<path style=" stroke:none;fill-rule:nonzero;fill:rgb(39.215687%,49.803922%,58.039218%);fill-opacity:1;" d="M 5.519531 14.34375 C 4.285156 14.070312 3.183594 13.453125 2.3125 12.59375 C 0.894531 13.289062 0.195312 14.3125 0.195312 15.730469 L 0.195312 20.53125 C 0.878906 20.847656 2.632812 21.5625 5.070312 21.820312 L 4.5 21.367188 C 4.320312 21.222656 4.238281 20.988281 4.285156 20.761719 Z M 5.519531 14.34375 "/>
<path style=" stroke:none;fill-rule:nonzero;fill:rgb(39.215687%,49.803922%,58.039218%);fill-opacity:1;" d="M 6.949219 13.277344 C 9.933594 13.277344 12.359375 10.835938 12.359375 7.832031 C 12.359375 4.828125 9.933594 2.386719 6.949219 2.386719 C 3.96875 2.386719 1.546875 4.828125 1.546875 7.832031 C 1.546875 10.832031 3.96875 13.277344 6.949219 13.277344 Z M 6.949219 13.277344 "/>
</g>
</svg>
