<?xml version="1.0" encoding="UTF-8"?>
<svg xmlns="http://www.w3.org/2000/svg" xmlns:xlink="http://www.w3.org/1999/xlink" width="px" height="24px" viewBox="0 0 24 24" version="1.1">
<g id="surface1">
<path style=" stroke:none;fill-rule:nonzero;fill:rgb(87.843138%,27.058825%,21.960784%);fill-opacity:1;" d="M 3.824219 10.238281 L 6.898438 11.476562 L 10.613281 9.335938 L 6.449219 7.085938 C 6.300781 7.011719 6.1875 6.898438 6.113281 6.75 C 5.886719 6.335938 6.039062 5.851562 6.414062 5.585938 L 9.675781 3.710938 C 9.9375 3.5625 10.273438 3.523438 10.539062 3.675781 L 15.636719 6.414062 L 19.238281 4.351562 C 19.949219 3.9375 20.773438 3.789062 21.449219 3.898438 C 23.136719 4.164062 24.039062 5.738281 23.4375 7.3125 C 23.175781 8.023438 22.613281 8.664062 21.9375 9.039062 L 8.625 16.6875 C 8.398438 16.835938 8.0625 16.835938 7.800781 16.726562 L 0.863281 13.125 C 0.710938 13.050781 0.5625 12.9375 0.488281 12.789062 C 0.226562 12.375 0.375 11.851562 0.789062 11.625 L 3.113281 10.273438 C 3.300781 10.164062 3.601562 10.125 3.824219 10.238281 Z M 3.824219 10.238281 "/>
<path style=" stroke:none;fill-rule:nonzero;fill:rgb(0%,0%,0%);fill-opacity:1;" d="M 3.976562 9.898438 L 6.863281 11.0625 L 9.863281 9.335938 L 6.261719 7.386719 C 5.4375 6.9375 5.4375 5.738281 6.226562 5.289062 L 9.488281 3.414062 C 9.863281 3.148438 10.351562 3.148438 10.726562 3.335938 L 15.636719 6 L 19.050781 4.011719 C 20.550781 3.148438 22.6875 3.300781 23.625 4.914062 C 24.5625 6.523438 23.625 8.476562 22.125 9.335938 L 8.773438 17.023438 C 8.398438 17.25 7.988281 17.25 7.613281 17.0625 L 0.710938 13.425781 C 0.1875 13.199219 -0.113281 12.601562 0.0390625 12.039062 C 0.113281 11.738281 0.300781 11.476562 0.601562 11.289062 L 2.925781 9.9375 L 2.960938 9.9375 C 3.414062 9.675781 3.414062 9.675781 3.976562 9.898438 Z M 3.710938 10.574219 C 3.5625 10.5 3.414062 10.5 3.300781 10.574219 C 2.511719 11.023438 1.761719 11.476562 0.976562 11.925781 C 0.636719 12.113281 0.675781 12.601562 1.011719 12.789062 L 1.050781 12.789062 L 7.988281 16.425781 C 8.136719 16.5 8.324219 16.5 8.4375 16.425781 L 21.75 8.699219 C 22.914062 8.0625 23.738281 6.5625 22.988281 5.289062 C 22.273438 4.011719 20.550781 3.976562 19.425781 4.648438 L 15.824219 6.710938 L 15.636719 6.824219 L 15.449219 6.710938 L 10.351562 3.976562 C 10.199219 3.898438 10.011719 3.898438 9.863281 4.011719 L 9.824219 4.011719 L 6.5625 5.886719 C 6 6.226562 6.488281 6.675781 6.824219 6.863281 L 11.324219 9.300781 L 6.898438 11.851562 Z M 3.710938 10.574219 "/>
<path style=" stroke:none;fill-rule:nonzero;fill:rgb(90.196079%,90.196079%,90.196079%);fill-opacity:1;" d="M 23.289062 5.0625 C 23.664062 5.699219 23.738281 6.488281 23.4375 7.273438 C 23.175781 7.988281 22.613281 8.625 21.9375 9 L 8.625 16.6875 C 8.398438 16.835938 8.0625 16.835938 7.800781 16.726562 L 5.585938 15.5625 Z M 23.289062 5.0625 "/>
<path style=" stroke:none;fill-rule:nonzero;fill:rgb(0%,0%,0%);fill-opacity:1;" d="M 23.625 4.875 C 24.601562 6.488281 23.664062 8.4375 22.125 9.300781 L 8.773438 17.023438 C 8.398438 17.25 7.988281 17.25 7.613281 17.0625 L 5.398438 15.898438 L 4.835938 15.601562 L 5.398438 15.261719 L 23.101562 4.761719 L 23.398438 4.574219 Z M 23.136719 5.585938 L 6.335938 15.5625 L 7.949219 16.425781 C 8.101562 16.5 8.289062 16.5 8.398438 16.425781 L 21.75 8.699219 C 22.800781 8.101562 23.585938 6.789062 23.136719 5.585938 Z M 23.136719 5.585938 "/>
<path style=" stroke:none;fill-rule:nonzero;fill:rgb(36.470589%,36.862746%,38.039216%);fill-opacity:1;" d="M 4.3125 20.4375 C 3.863281 20.4375 3.488281 20.0625 3.488281 19.613281 C 3.488281 19.164062 3.863281 18.789062 4.3125 18.789062 L 22.726562 18.789062 C 23.175781 18.789062 23.550781 19.164062 23.550781 19.613281 C 23.550781 20.0625 23.175781 20.4375 22.726562 20.4375 Z M 4.3125 20.4375 "/>
<path style=" stroke:none;fill-rule:nonzero;fill:rgb(0%,0%,0%);fill-opacity:1;" d="M 4.3125 20.8125 C 3.636719 20.8125 3.113281 20.289062 3.113281 19.613281 C 3.113281 18.9375 3.636719 18.414062 4.3125 18.414062 L 22.726562 18.414062 C 23.398438 18.414062 23.925781 18.9375 23.925781 19.613281 C 23.925781 20.289062 23.398438 20.8125 22.726562 20.8125 Z M 4.3125 20.0625 L 22.726562 20.0625 C 22.988281 20.0625 23.210938 19.835938 23.210938 19.574219 C 23.210938 19.3125 23.023438 19.125 22.761719 19.125 L 4.351562 19.125 C 4.085938 19.125 3.863281 19.351562 3.863281 19.613281 C 3.863281 19.875 4.050781 20.0625 4.3125 20.0625 Z M 4.3125 20.0625 "/>
</g>
</svg>
