<?xml version="1.0" encoding="UTF-8"?>
<svg xmlns="http://www.w3.org/2000/svg" xmlns:xlink="http://www.w3.org/1999/xlink" width="px" height="25px" viewBox="0 0 25 25" version="1.1">
<g id="surface1">
<path style=" stroke:none;fill-rule:nonzero;fill:rgb(0.392157%,34.117648%,60.784316%);fill-opacity:1;" d="M 23.054688 19.984375 L 14.121094 24.023438 C 13.570312 24.28125 12.992188 24.257812 12.46875 23.953125 L 1.1875 18.226562 C 0.867188 18.019531 0.773438 17.71875 0.789062 17.507812 C 0.808594 17.296875 0.859375 17.066406 1.425781 16.902344 L 2.261719 16.59375 L 13.574219 22.757812 L 21.613281 19.476562 Z M 23.054688 19.984375 "/>
<path style=" stroke:none;fill-rule:nonzero;fill:rgb(96.078432%,96.078432%,96.078432%);fill-opacity:1;" d="M 14.011719 23.375 C 13.558594 23.589844 13.03125 23.570312 12.59375 23.328125 L 1.585938 17.78125 C 1.429688 17.695312 1.378906 17.496094 1.472656 17.34375 C 1.714844 16.945312 2.160156 15.679688 1.425781 14.625 L 13.859375 20.613281 L 14.011719 23.378906 Z M 14.011719 23.375 "/>
<path style=" stroke:none;fill-rule:nonzero;fill:rgb(58.039218%,77.64706%,83.92157%);fill-opacity:1;" d="M 22.578125 19.527344 L 14.011719 23.375 C 13.730469 23.5 13.164062 23.71875 12.515625 23.28125 C 13.027344 23.320312 13.390625 23.105469 13.574219 22.757812 C 13.757812 22.421875 13.703125 21.875 13.480469 21.5625 C 13.347656 21.375 12.984375 21.078125 12.828125 20.910156 L 22.089844 17.285156 C 22.910156 16.945312 23.679688 17.453125 23.800781 18.070312 C 23.9375 18.765625 23.050781 19.332031 22.574219 19.527344 Z M 22.578125 19.527344 "/>
<path style=" stroke:none;fill-rule:nonzero;fill:rgb(0.392157%,34.117648%,60.784316%);fill-opacity:1;" d="M 23.003906 16.984375 L 14.160156 20.929688 C 13.605469 21.148438 12.980469 21.121094 12.449219 20.851562 L 1.152344 15.113281 C 1.042969 15.058594 0.882812 14.90625 0.816406 14.703125 C 0.710938 14.359375 0.84375 13.929688 1.242188 13.796875 L 13.484375 20.035156 L 21.867188 16.445312 Z M 23.003906 16.984375 "/>
<path style=" stroke:none;fill-rule:nonzero;fill:rgb(0%,56.862748%,91.764706%);fill-opacity:1;" d="M 23.671875 17.554688 L 22.707031 17.207031 L 20.722656 17.320312 L 14.164062 20.25 C 13.609375 20.46875 12.984375 20.441406 12.453125 20.171875 L 1.152344 14.4375 C 0.859375 14.289062 0.925781 13.855469 1.242188 13.796875 L 9.386719 10.152344 C 9.617188 10.109375 9.859375 10.132812 10.074219 10.226562 L 21.695312 15.765625 C 21.695312 15.765625 23.539062 17.03125 23.671875 17.554688 Z M 23.671875 17.554688 "/>
<path style=" stroke:none;fill-rule:nonzero;fill:rgb(38.039216%,38.039216%,38.039216%);fill-opacity:1;" d="M 20.609375 17.378906 C 20.609375 17.378906 21.835938 16.898438 22.796875 16.945312 C 23.757812 16.984375 24.089844 17.660156 24.089844 17.660156 C 23.90625 16.835938 23.054688 16.414062 23.054688 16.414062 L 10.359375 10.019531 C 10.273438 9.984375 9.949219 9.90625 9.449219 10.109375 C 9.046875 10.277344 7.734375 10.890625 7.734375 10.890625 L 20.613281 17.378906 Z M 20.609375 17.378906 "/>
<path style=" stroke:none;fill-rule:nonzero;fill:rgb(25.882354%,25.882354%,25.882354%);fill-opacity:1;" d="M 24.144531 17.816406 C 24.054688 17.453125 23.828125 17.0625 23.40625 16.871094 C 22.859375 16.625 22.070312 16.6875 21.570312 16.949219 L 20.609375 17.375 L 20.609375 18.050781 L 21.824219 17.511719 C 23.003906 16.984375 23.527344 17.773438 23.570312 17.960938 C 23.757812 18.714844 23.398438 19.152344 22.324219 19.644531 L 20.582031 20.429688 L 20.582031 21.109375 L 22.585938 20.21875 C 23.472656 19.859375 24.484375 19.195312 24.144531 17.816406 Z M 24.144531 17.816406 "/>
<path style=" stroke:none;fill-rule:nonzero;fill:rgb(0.392157%,34.117648%,60.784316%);fill-opacity:1;" d="M 6.445312 17.640625 L 3.074219 12.976562 L 3.601562 12.742188 L 7.398438 17.957031 Z M 6.445312 17.640625 "/>
<path style=" stroke:none;fill-rule:nonzero;fill:rgb(0.392157%,34.117648%,60.784316%);fill-opacity:1;" d="M 10.773438 19.789062 L 10.171875 19.3125 L 20.609375 17.179688 L 20.609375 17.523438 L 19.148438 18.078125 Z M 10.773438 19.789062 "/>
<path style=" stroke:none;fill-rule:nonzero;fill:rgb(61.176473%,80.000001%,39.607844%);fill-opacity:1;" d="M 2.890625 9.019531 L 16.078125 6.816406 L 21.835938 13.15625 C 22.125 13.464844 21.96875 13.972656 21.554688 14.054688 L 7.941406 16.851562 Z M 2.890625 9.019531 "/>
<path style=" stroke:none;fill-rule:nonzero;fill:rgb(40.784314%,62.352943%,21.960784%);fill-opacity:1;" d="M 21.554688 13.507812 L 8.035156 16.25 L 7.992188 16.890625 L 21.554688 14.109375 C 21.9375 14.03125 22.097656 13.59375 21.890625 13.285156 C 21.816406 13.394531 21.703125 13.480469 21.554688 13.507812 Z M 21.554688 13.507812 "/>
<path style=" stroke:none;fill-rule:nonzero;fill:rgb(40.784314%,62.352943%,21.960784%);fill-opacity:1;" d="M 22.28125 16.464844 C 22.425781 16.691406 22.296875 16.992188 22.035156 17.042969 L 9.589844 19.566406 C 8.84375 19.71875 8.109375 19.230469 8.039062 18.46875 C 7.984375 17.824219 8.421875 17.238281 9.054688 17.105469 L 21.023438 14.417969 Z M 22.28125 16.464844 "/>
<path style=" stroke:none;fill-rule:nonzero;fill:rgb(38.039216%,38.039216%,38.039216%);fill-opacity:1;" d="M 10.859375 15.644531 L 5.898438 8.550781 L 3.070312 9.296875 C 2.417969 9.949219 2.664062 11.015625 2.664062 11.015625 C 2.664062 11.015625 6.992188 17.96875 7.675781 18.855469 C 8.359375 19.742188 9.359375 19.605469 9.359375 19.605469 L 11.042969 19.265625 L 10.867188 16.121094 Z M 10.859375 15.644531 "/>
<path style=" stroke:none;fill-rule:nonzero;fill:rgb(25.882354%,25.882354%,25.882354%);fill-opacity:1;" d="M 10.859375 15.691406 L 8.476562 16.183594 C 7.828125 16.328125 7.710938 16.941406 7.710938 16.941406 L 1.960938 8.703125 C 1.960938 8.703125 1.140625 9.695312 1.683594 10.539062 L 7.675781 18.855469 C 8.328125 19.789062 9.359375 19.613281 9.359375 19.613281 L 11.042969 19.273438 L 10.867188 16.191406 L 10.855469 15.691406 Z M 10.859375 15.691406 "/>
<path style=" stroke:none;fill-rule:nonzero;fill:rgb(72.549021%,89.411765%,91.764706%);fill-opacity:1;" d="M 21.53125 16.210938 C 21.59375 16.34375 21.515625 16.5 21.375 16.527344 L 9.472656 18.96875 C 8.726562 19.125 8.195312 18.625 8.222656 17.953125 C 8.257812 17.097656 8.734375 16.734375 9.367188 16.605469 L 21.328125 14.160156 C 21.328125 14.160156 20.921875 14.617188 21.234375 15.472656 C 21.339844 15.769531 21.453125 16.03125 21.535156 16.210938 Z M 21.53125 16.210938 "/>
<path style="fill:none;stroke-width:2.071;stroke-linecap:butt;stroke-linejoin:miter;stroke:rgb(25.882354%,25.882354%,25.882354%);stroke-opacity:1;stroke-miterlimit:10;" d="M 45.2 83.7 L 19.1 46.76 " transform="matrix(0.195312,0,0,0.195312,0,0)"/>
<path style=" stroke:none;fill-rule:nonzero;fill:rgb(25.882354%,25.882354%,25.882354%);fill-opacity:1;" d="M 9.230469 13.273438 L 2.671875 9.96875 L 2.40625 10.492188 L 9.984375 14.351562 Z M 9.230469 13.273438 "/>
<path style=" stroke:none;fill-rule:nonzero;fill:rgb(40.784314%,62.352943%,21.960784%);fill-opacity:1;" d="M 21.25 12.507812 L 20.769531 11.976562 L 13.378906 15.367188 L 9.230469 13.316406 L 9.9375 14.328125 L 12.6875 15.730469 L 14.734375 15.417969 Z M 21.25 12.507812 "/>
<path style=" stroke:none;fill-rule:nonzero;fill:rgb(77.64706%,15.686275%,15.686275%);fill-opacity:1;" d="M 23.050781 11.199219 L 14.121094 15.242188 C 13.570312 15.5 12.992188 15.476562 12.46875 15.171875 L 1.1875 9.441406 C 0.867188 9.234375 0.773438 8.933594 0.789062 8.722656 C 0.8125 8.511719 0.859375 8.28125 1.425781 8.117188 L 1.953125 7.921875 L 13.539062 13.609375 L 22.949219 9.714844 Z M 23.050781 11.199219 "/>
<path style=" stroke:none;fill-rule:nonzero;fill:rgb(96.078432%,96.078432%,96.078432%);fill-opacity:1;" d="M 14.007812 14.59375 C 13.554688 14.804688 13.027344 14.789062 12.59375 14.542969 L 1.582031 8.996094 C 1.425781 8.910156 1.378906 8.710938 1.472656 8.5625 C 1.714844 8.160156 2.160156 6.894531 1.425781 5.84375 L 13.582031 12.027344 Z M 14.007812 14.59375 "/>
<path style=" stroke:none;fill-rule:nonzero;fill:rgb(58.039218%,77.64706%,83.92157%);fill-opacity:1;" d="M 22.574219 10.742188 L 14.007812 14.59375 C 13.726562 14.714844 13.164062 14.9375 12.511719 14.5 C 13.023438 14.535156 13.386719 14.320312 13.574219 13.976562 C 13.753906 13.640625 13.699219 13.089844 13.480469 12.78125 C 13.34375 12.59375 12.984375 12.292969 12.824219 12.125 L 22.085938 8.5 C 22.90625 8.164062 23.679688 8.671875 23.800781 9.285156 C 23.9375 9.980469 23.050781 10.546875 22.574219 10.742188 Z M 22.574219 10.742188 "/>
<path style=" stroke:none;fill-rule:nonzero;fill:rgb(77.64706%,15.686275%,15.686275%);fill-opacity:1;" d="M 23.003906 8.203125 L 14.160156 12.148438 C 13.605469 12.367188 12.980469 12.335938 12.449219 12.070312 L 1.148438 6.328125 C 1.03125 6.273438 0.855469 6.121094 0.800781 5.90625 C 0.714844 5.589844 0.824219 5.175781 1.242188 5.011719 L 11.59375 2.816406 L 23.003906 8.199219 Z M 23.003906 8.203125 "/>
<path style=" stroke:none;fill-rule:nonzero;fill:rgb(95.686275%,26.274511%,21.176471%);fill-opacity:1;" d="M 23.667969 8.773438 L 22.703125 8.421875 L 20.71875 8.539062 L 14.160156 11.46875 C 13.605469 11.6875 12.980469 11.660156 12.449219 11.390625 L 1.148438 5.648438 C 0.859375 5.5 0.960938 5.109375 1.242188 5.007812 L 9.386719 1.367188 C 9.617188 1.324219 9.859375 1.351562 10.074219 1.441406 L 21.695312 6.984375 C 21.695312 6.984375 23.539062 8.242188 23.667969 8.773438 Z M 23.667969 8.773438 "/>
<path style=" stroke:none;fill-rule:nonzero;fill:rgb(38.039216%,38.039216%,38.039216%);fill-opacity:1;" d="M 20.609375 8.59375 C 20.609375 8.59375 21.628906 8.234375 22.589844 8.28125 C 23.550781 8.320312 24.09375 8.875 24.09375 8.875 C 23.894531 7.992188 23.054688 7.625 23.054688 7.625 L 10.359375 1.234375 C 10.273438 1.195312 9.949219 1.121094 9.453125 1.324219 C 9.046875 1.492188 7.734375 2.105469 7.734375 2.105469 Z M 20.609375 8.59375 "/>
<path style=" stroke:none;fill-rule:nonzero;fill:rgb(25.882354%,25.882354%,25.882354%);fill-opacity:1;" d="M 21.773438 8.175781 L 8.78125 1.625 L 9.210938 1.429688 L 22.421875 8.050781 Z M 21.773438 8.175781 "/>
<path style=" stroke:none;fill-rule:nonzero;fill:rgb(25.882354%,25.882354%,25.882354%);fill-opacity:1;" d="M 24.140625 9.03125 C 24.050781 8.667969 23.898438 8.3125 23.460938 8.132812 C 22.90625 7.898438 22.398438 7.847656 21.570312 8.164062 L 20.609375 8.59375 L 20.609375 9.265625 L 21.820312 8.730469 C 22.4375 8.441406 23.34375 8.5 23.570312 9.175781 C 23.820312 9.914062 23.394531 10.367188 22.320312 10.859375 L 20.578125 11.648438 L 20.578125 12.324219 L 22.585938 11.433594 C 23.472656 11.078125 24.484375 10.410156 24.144531 9.03125 Z M 24.140625 9.03125 "/>
</g>
</svg>
