<?xml version="1.0" encoding="UTF-8"?>
<svg xmlns="http://www.w3.org/2000/svg" xmlns:xlink="http://www.w3.org/1999/xlink" width="px" height="25px" viewBox="0 0 25 25" version="1.1">
<g id="surface1">
<path style=" stroke:none;fill-rule:nonzero;fill:rgb(58.431375%,45.882353%,80.392158%);fill-opacity:1;" d="M 4.042969 7.425781 L 20.957031 7.425781 C 22.199219 7.425781 23.214844 8.441406 23.214844 9.679688 L 23.214844 19.832031 L 1.785156 19.832031 L 1.785156 9.679688 C 1.785156 8.441406 2.800781 7.425781 4.042969 7.425781 Z M 4.042969 7.425781 "/>
<path style=" stroke:none;fill-rule:nonzero;fill:rgb(40.392157%,22.745098%,71.764708%);fill-opacity:1;" d="M 1.785156 19.832031 L 23.214844 19.832031 L 23.214844 20.957031 C 23.214844 22.199219 22.199219 23.214844 20.957031 23.214844 L 4.042969 23.214844 C 2.800781 23.214844 1.785156 22.199219 1.785156 20.957031 Z M 19.832031 8.550781 L 14.753906 8.550781 C 14.136719 8.550781 13.628906 8.046875 13.628906 7.425781 L 13.628906 4.605469 C 13.628906 3.984375 14.136719 3.476562 14.753906 3.476562 L 19.832031 3.476562 C 20.449219 3.476562 20.957031 3.984375 20.957031 4.605469 L 20.957031 7.425781 C 20.957031 8.046875 20.449219 8.550781 19.832031 8.550781 Z M 5.167969 8.550781 L 11.9375 8.550781 L 11.9375 10.808594 L 5.167969 10.808594 Z M 5.167969 8.550781 "/>
<path style=" stroke:none;fill-rule:nonzero;fill:rgb(56.470591%,79.215688%,97.647059%);fill-opacity:1;" d="M 11.9375 1.785156 L 10.808594 2.351562 L 9.679688 1.785156 L 8.550781 2.351562 L 7.425781 1.785156 L 6.296875 2.351562 L 5.167969 1.785156 L 5.167969 9.679688 L 11.9375 9.679688 Z M 11.9375 1.785156 "/>
<path style=" stroke:none;fill-rule:nonzero;fill:rgb(12.941177%,58.823532%,95.294118%);fill-opacity:1;" d="M 14.753906 4.605469 L 19.832031 4.605469 L 19.832031 7.425781 L 14.753906 7.425781 Z M 14.753906 4.605469 "/>
<path style=" stroke:none;fill-rule:nonzero;fill:rgb(70.19608%,61.56863%,85.882354%);fill-opacity:1;" d="M 4.605469 11.9375 L 6.859375 11.9375 L 6.859375 14.191406 L 4.605469 14.191406 Z M 7.988281 11.9375 L 10.246094 11.9375 L 10.246094 14.191406 L 7.988281 14.191406 Z M 11.371094 11.9375 L 13.628906 11.9375 L 13.628906 14.191406 L 11.371094 14.191406 Z M 14.753906 11.9375 L 17.011719 11.9375 L 17.011719 14.191406 L 14.753906 14.191406 Z M 18.140625 11.9375 L 20.394531 11.9375 L 20.394531 14.191406 L 18.140625 14.191406 Z M 4.605469 15.320312 L 6.859375 15.320312 L 6.859375 17.574219 L 4.605469 17.574219 Z M 7.988281 15.320312 L 10.246094 15.320312 L 10.246094 17.574219 L 7.988281 17.574219 Z M 11.371094 15.320312 L 13.628906 15.320312 L 13.628906 17.574219 L 11.371094 17.574219 Z M 14.753906 15.320312 L 17.011719 15.320312 L 17.011719 17.574219 L 14.753906 17.574219 Z M 18.140625 15.320312 L 20.394531 15.320312 L 20.394531 17.574219 L 18.140625 17.574219 Z M 18.140625 15.320312 "/>
<path style=" stroke:none;fill-rule:nonzero;fill:rgb(70.19608%,61.56863%,85.882354%);fill-opacity:1;" d="M 13.347656 21.523438 C 13.347656 21.054688 12.96875 20.675781 12.5 20.675781 C 12.03125 20.675781 11.652344 21.054688 11.652344 21.523438 C 11.652344 21.988281 12.03125 22.367188 12.5 22.367188 C 12.96875 22.367188 13.347656 21.988281 13.347656 21.523438 Z M 13.347656 21.523438 "/>
</g>
</svg>
