<?xml version="1.0" encoding="UTF-8"?>
<svg xmlns="http://www.w3.org/2000/svg" xmlns:xlink="http://www.w3.org/1999/xlink" width="px" height="24px" viewBox="0 0 24 24" version="1.1">
<g id="surface1">
<path style=" stroke:none;fill-rule:nonzero;fill:rgb(88.627452%,25.882354%,33.333334%);fill-opacity:1;" d="M 15.941406 9.121094 L 12 11.101562 L 8.058594 9.121094 L 3.179688 18.859375 L 6.21875 18.558594 L 7.78125 21.179688 L 12 12.78125 L 16.21875 21.179688 L 17.78125 18.558594 L 20.820312 18.859375 Z M 15.941406 9.121094 "/>
<path style=" stroke:none;fill-rule:nonzero;fill:rgb(100%,77.254903%,30.19608%);fill-opacity:1;" d="M 18.441406 9.28125 C 18.441406 5.722656 15.558594 2.839844 12 2.839844 C 8.441406 2.839844 5.558594 5.722656 5.558594 9.28125 C 5.558594 12.835938 8.441406 15.71875 12 15.71875 C 15.558594 15.71875 18.441406 12.835938 18.441406 9.28125 Z M 18.441406 9.28125 "/>
<path style=" stroke:none;fill-rule:nonzero;fill:rgb(90.980393%,69.01961%,29.411766%);fill-opacity:1;" d="M 17.058594 9.28125 C 17.058594 6.484375 14.792969 4.21875 12 4.21875 C 9.207031 4.21875 6.941406 6.484375 6.941406 9.28125 C 6.941406 12.074219 9.207031 14.339844 12 14.339844 C 14.792969 14.339844 17.058594 12.074219 17.058594 9.28125 Z M 17.058594 9.28125 "/>
<path style=" stroke:none;fill-rule:nonzero;fill:rgb(100%,100%,100%);fill-opacity:1;" d="M 12.238281 6.238281 L 13.078125 7.921875 C 13.121094 8 13.199219 8.058594 13.28125 8.078125 L 15.140625 8.359375 C 15.359375 8.398438 15.460938 8.660156 15.300781 8.820312 L 13.960938 10.140625 C 13.898438 10.199219 13.859375 10.300781 13.878906 10.378906 L 14.199219 12.238281 C 14.238281 12.460938 14 12.640625 13.800781 12.519531 L 12.140625 11.640625 C 12.058594 11.601562 11.960938 11.601562 11.878906 11.640625 L 10.199219 12.519531 C 10 12.621094 9.761719 12.460938 9.800781 12.238281 L 10.121094 10.378906 C 10.140625 10.300781 10.101562 10.199219 10.039062 10.140625 L 8.699219 8.820312 C 8.539062 8.660156 8.621094 8.378906 8.859375 8.359375 L 10.71875 8.078125 C 10.800781 8.058594 10.878906 8.019531 10.921875 7.921875 L 11.761719 6.238281 C 11.859375 6.039062 12.140625 6.039062 12.238281 6.238281 Z M 12.238281 6.238281 "/>
</g>
</svg>
