<?xml version="1.0" encoding="UTF-8"?>
<svg xmlns="http://www.w3.org/2000/svg" xmlns:xlink="http://www.w3.org/1999/xlink" width="px" height="25px" viewBox="0 0 25 25" version="1.1">
<defs>
<filter id="alpha" filterUnits="objectBoundingBox" x="0%" y="0%" width="100%" height="100%">
  <feColorMatrix type="matrix" in="SourceGraphic" values="0 0 0 0 1 0 0 0 0 1 0 0 0 0 1 0 0 0 1 0"/>
</filter>
<mask id="mask0">
  <g filter="url(#alpha)">
<rect x="0" y="0" width="25" height="25" style="fill:rgb(0%,0%,0%);fill-opacity:0.101961;stroke:none;"/>
  </g>
</mask>
<clipPath id="clip1">
  <rect x="0" y="0" width="25" height="25"/>
</clipPath>
<g id="surface5" clip-path="url(#clip1)">
<path style=" stroke:none;fill-rule:nonzero;fill:rgb(0%,0%,0%);fill-opacity:1;" d="M 5.796875 11.292969 L 0 8.3125 L 0 16.898438 L 5.8125 19.875 Z M 12.046875 15.648438 L 6.25 12.671875 L 6.25 19.996094 L 12.0625 22.972656 Z M 12.046875 15.648438 "/>
</g>
</defs>
<g id="surface1">
<path style=" stroke:none;fill-rule:evenodd;fill:rgb(14.117648%,68.235296%,37.254903%);fill-opacity:1;" d="M 5.8125 19.75 L 0 16.75 L 0 8.164062 L 12.9375 1.75 L 18.75 4.75 L 18.75 13.375 Z M 5.8125 19.75 "/>
<path style=" stroke:none;fill-rule:evenodd;fill:rgb(11.764706%,58.039218%,31.37255%);fill-opacity:1;" d="M 0 16.136719 L 0 16.882812 L 5.796875 19.867188 L 18.703125 13.527344 L 18.703125 12.78125 L 5.796875 19.121094 Z M 0 14.832031 L 0 15.578125 L 5.796875 18.5625 L 18.703125 12.222656 L 18.703125 11.476562 L 5.796875 17.816406 Z M 0 12.222656 L 0 12.96875 L 5.796875 15.953125 L 18.703125 9.613281 L 18.703125 8.867188 L 5.796875 15.207031 Z M 0 13.527344 L 0 14.273438 L 5.796875 17.257812 L 18.703125 10.917969 L 18.703125 10.171875 L 5.796875 16.511719 Z M 0 10.917969 L 0 11.664062 L 5.796875 14.648438 L 18.703125 8.308594 L 18.703125 7.5625 L 5.796875 13.902344 Z M 5.8125 11.285156 L 0 8.269531 L 0 9.023438 L 5.8125 12.035156 L 18.75 5.636719 L 18.75 4.882812 Z M 0 9.613281 L 0 10.359375 L 5.8125 13.34375 L 18.75 7.003906 L 18.75 6.257812 L 5.8125 12.597656 Z M 0 9.613281 "/>
<path style=" stroke:none;fill-rule:evenodd;fill:rgb(14.117648%,68.235296%,37.254903%);fill-opacity:1;" d="M 12.035156 22.972656 L 6.25 19.988281 L 6.25 12.660156 L 19.125 6.324219 L 25 9.324219 L 25 16.574219 Z M 12.035156 22.972656 "/>
<path style=" stroke:none;fill-rule:evenodd;fill:rgb(11.764706%,58.039218%,31.37255%);fill-opacity:1;" d="M 6.25 19.269531 L 6.25 20.015625 L 12.0625 23 L 25 16.660156 L 25 15.914062 L 12.0625 22.253906 Z M 6.25 17.964844 L 6.25 18.710938 L 12.0625 21.695312 L 25 15.355469 L 25 14.609375 L 12.0625 20.949219 Z M 6.25 15.355469 L 6.25 16.101562 L 12.0625 19.085938 L 25 12.746094 L 25 12 L 12.0625 18.339844 Z M 6.25 16.660156 L 6.25 17.40625 L 12.0625 20.390625 L 25 14.050781 L 25 13.304688 L 12.0625 19.644531 Z M 6.25 14.050781 L 6.25 14.796875 L 12.0625 17.78125 L 25 11.441406 L 25 10.695312 L 12.0625 17.035156 Z M 12.0625 15.644531 L 6.25 12.660156 L 6.25 13.40625 L 12.0625 16.390625 L 25 10.050781 L 25 9.304688 Z M 12.0625 15.644531 "/>
<use xlink:href="#surface5" mask="url(#mask0)"/>
<path style=" stroke:none;fill-rule:evenodd;fill:rgb(11.764706%,58.039218%,31.37255%);fill-opacity:1;" d="M 15 12.652344 L 12.160156 14.015625 L 9.734375 12.710938 L 13.015625 11.101562 C 13.015625 11.101562 12.789062 10.449219 12.929688 10.347656 C 12.925781 10.359375 8.082031 12.769531 8.082031 12.769531 L 12.226562 14.84375 L 16.488281 12.714844 C 16.488281 12.714844 16.074219 12.726562 15.703125 12.710938 C 15.328125 12.695312 15 12.652344 15 12.652344 Z M 18.359375 11.777344 L 23.375 9.375 L 19.300781 7.164062 L 15.042969 9.292969 C 15.6875 9.257812 16.214844 9.535156 16.214844 9.535156 L 19.246094 8.050781 L 21.859375 9.355469 L 18.363281 11.035156 Z M 18.359375 11.777344 "/>
<path style=" stroke:none;fill-rule:nonzero;fill:rgb(11.764706%,58.039218%,31.37255%);fill-opacity:1;" d="M 16.058594 11.738281 C 16.226562 11.746094 16.394531 11.71875 16.554688 11.664062 L 15.675781 11.195312 L 15.597656 11.214844 L 15.503906 11.246094 C 15.371094 11.285156 15.238281 11.320312 15.101562 11.355469 C 14.960938 11.386719 14.824219 11.410156 14.679688 11.417969 C 14.539062 11.425781 14.394531 11.417969 14.253906 11.390625 C 14.105469 11.363281 13.964844 11.3125 13.832031 11.242188 C 13.6875 11.164062 13.589844 11.085938 13.53125 10.996094 C 13.476562 10.910156 13.457031 10.824219 13.46875 10.738281 C 13.484375 10.652344 13.527344 10.566406 13.605469 10.484375 C 13.6875 10.390625 13.785156 10.316406 13.890625 10.253906 L 13.566406 10.078125 L 13.8125 9.949219 L 14.136719 10.121094 C 14.277344 10.0625 14.421875 10.015625 14.570312 9.980469 C 14.722656 9.941406 14.875 9.921875 15.027344 9.914062 C 15.1875 9.910156 15.34375 9.921875 15.5 9.949219 C 15.664062 9.980469 15.824219 10.03125 15.972656 10.101562 L 15.382812 10.414062 C 15.261719 10.355469 15.125 10.324219 14.992188 10.320312 C 14.847656 10.3125 14.726562 10.332031 14.632812 10.382812 L 15.378906 10.78125 L 15.507812 10.738281 L 15.644531 10.695312 C 15.90625 10.617188 16.136719 10.570312 16.328125 10.554688 C 16.523438 10.542969 16.691406 10.542969 16.832031 10.5625 C 16.976562 10.582031 17.097656 10.613281 17.199219 10.65625 C 17.296875 10.699219 17.382812 10.738281 17.453125 10.777344 C 17.515625 10.808594 17.578125 10.859375 17.640625 10.925781 C 17.703125 10.992188 17.742188 11.070312 17.753906 11.160156 C 17.765625 11.25 17.738281 11.347656 17.675781 11.457031 C 17.613281 11.5625 17.484375 11.675781 17.292969 11.792969 L 17.652344 11.984375 L 17.40625 12.113281 L 17.046875 11.921875 C 16.714844 12.074219 16.375 12.152344 16.027344 12.15625 C 15.679688 12.15625 15.328125 12.078125 14.96875 11.914062 L 15.554688 11.605469 C 15.707031 11.691406 15.882812 11.738281 16.058594 11.738281 Z M 16.921875 11.433594 C 16.957031 11.394531 16.980469 11.355469 16.988281 11.3125 C 16.996094 11.273438 16.992188 11.230469 16.96875 11.191406 C 16.949219 11.152344 16.902344 11.113281 16.835938 11.078125 C 16.730469 11.019531 16.609375 10.992188 16.488281 11 C 16.363281 11.007812 16.199219 11.042969 15.992188 11.105469 L 16.800781 11.535156 C 16.84375 11.503906 16.886719 11.472656 16.921875 11.433594 Z M 14.269531 10.597656 C 14.242188 10.625 14.222656 10.660156 14.214844 10.695312 C 14.207031 10.734375 14.21875 10.769531 14.238281 10.800781 C 14.261719 10.832031 14.304688 10.867188 14.363281 10.898438 C 14.457031 10.945312 14.554688 10.96875 14.664062 10.964844 C 14.773438 10.960938 14.910156 10.933594 15.074219 10.878906 L 14.386719 10.515625 C 14.34375 10.535156 14.304688 10.5625 14.269531 10.597656 Z M 14.269531 10.597656 "/>
<path style=" stroke:none;fill-rule:evenodd;fill:rgb(11.764706%,58.039218%,31.37255%);fill-opacity:1;" d="M 8.644531 8.152344 L 5.804688 9.515625 L 3.378906 8.210938 L 6.664062 6.601562 C 6.664062 6.601562 6.4375 5.949219 6.574219 5.847656 C 6.574219 5.859375 1.730469 8.269531 1.730469 8.269531 L 5.875 10.34375 L 10.136719 8.214844 C 10.136719 8.214844 9.71875 8.226562 9.351562 8.210938 C 8.972656 8.195312 8.644531 8.152344 8.644531 8.152344 Z M 12.007812 7.277344 L 17.023438 4.875 L 12.945312 2.664062 L 8.6875 4.792969 C 9.335938 4.757812 9.863281 5.035156 9.863281 5.035156 L 12.894531 3.550781 L 15.507812 4.855469 L 12.007812 6.535156 Z M 12.007812 7.277344 "/>
<path style=" stroke:none;fill-rule:nonzero;fill:rgb(11.764706%,58.039218%,31.37255%);fill-opacity:1;" d="M 9.707031 7.238281 C 9.875 7.246094 10.042969 7.21875 10.203125 7.164062 L 9.320312 6.695312 L 9.246094 6.714844 L 9.148438 6.746094 C 9.015625 6.785156 8.882812 6.824219 8.746094 6.855469 C 8.609375 6.886719 8.46875 6.910156 8.328125 6.917969 C 8.183594 6.925781 8.042969 6.917969 7.902344 6.890625 C 7.753906 6.863281 7.609375 6.8125 7.476562 6.742188 C 7.335938 6.664062 7.234375 6.585938 7.179688 6.496094 C 7.125 6.410156 7.101562 6.324219 7.117188 6.238281 C 7.132812 6.152344 7.175781 6.066406 7.25 5.984375 C 7.335938 5.894531 7.433594 5.816406 7.539062 5.753906 L 7.214844 5.578125 L 7.460938 5.449219 L 7.785156 5.621094 C 7.925781 5.5625 8.070312 5.515625 8.21875 5.480469 C 8.367188 5.445312 8.519531 5.421875 8.675781 5.414062 C 8.832031 5.410156 8.992188 5.421875 9.148438 5.449219 C 9.308594 5.480469 9.46875 5.53125 9.617188 5.601562 L 9.027344 5.914062 C 8.90625 5.855469 8.773438 5.824219 8.636719 5.820312 C 8.492188 5.8125 8.371094 5.835938 8.277344 5.882812 L 9.027344 6.28125 L 9.152344 6.238281 L 9.292969 6.195312 C 9.554688 6.117188 9.78125 6.070312 9.976562 6.054688 C 10.167969 6.042969 10.335938 6.042969 10.480469 6.0625 C 10.621094 6.082031 10.746094 6.113281 10.84375 6.15625 C 10.945312 6.199219 11.027344 6.242188 11.097656 6.277344 C 11.160156 6.308594 11.222656 6.359375 11.289062 6.425781 C 11.351562 6.492188 11.390625 6.570312 11.398438 6.660156 C 11.410156 6.75 11.386719 6.847656 11.324219 6.957031 C 11.261719 7.0625 11.132812 7.175781 10.9375 7.292969 L 11.296875 7.484375 L 11.050781 7.613281 L 10.691406 7.421875 C 10.359375 7.578125 10.019531 7.652344 9.675781 7.65625 C 9.328125 7.65625 8.976562 7.578125 8.613281 7.414062 L 9.199219 7.105469 C 9.359375 7.191406 9.527344 7.234375 9.707031 7.238281 Z M 10.566406 6.933594 C 10.605469 6.894531 10.625 6.855469 10.636719 6.8125 C 10.644531 6.773438 10.636719 6.730469 10.617188 6.691406 C 10.59375 6.652344 10.550781 6.613281 10.484375 6.578125 C 10.375 6.519531 10.253906 6.492188 10.132812 6.5 L 9.636719 6.605469 L 10.449219 7.035156 C 10.492188 7.003906 10.53125 6.972656 10.566406 6.933594 Z M 7.917969 6.097656 C 7.890625 6.125 7.871094 6.160156 7.863281 6.195312 C 7.855469 6.234375 7.863281 6.269531 7.886719 6.300781 C 7.910156 6.332031 7.949219 6.367188 8.007812 6.398438 C 8.101562 6.445312 8.203125 6.46875 8.3125 6.464844 C 8.421875 6.460938 8.558594 6.433594 8.722656 6.378906 L 8.03125 6.015625 C 7.988281 6.035156 7.949219 6.0625 7.917969 6.097656 Z M 7.917969 6.097656 "/>
</g>
</svg>
