<?xml version="1.0" encoding="UTF-8"?>
<svg xmlns="http://www.w3.org/2000/svg" xmlns:xlink="http://www.w3.org/1999/xlink" width="px" height="25px" viewBox="0 0 25 25" version="1.1">
<g id="surface1">
<path style=" stroke:none;fill-rule:nonzero;fill:rgb(47.058824%,56.470591%,61.176473%);fill-opacity:1;" d="M 20.832031 21.355469 L 4.167969 21.355469 C 3.019531 21.355469 2.082031 20.417969 2.082031 19.269531 L 2.082031 8.386719 C 2.082031 7.707031 2.394531 7.082031 2.96875 6.667969 L 12.5 0 L 22.03125 6.667969 C 22.605469 7.03125 22.917969 7.707031 22.917969 8.386719 L 22.917969 19.269531 C 22.917969 20.417969 21.980469 21.355469 20.832031 21.355469 Z M 20.832031 21.355469 "/>
<path style=" stroke:none;fill-rule:nonzero;fill:rgb(68.235296%,83.529413%,50.588238%);fill-opacity:1;" d="M 7.292969 0.519531 L 17.707031 0.519531 L 17.707031 16.667969 L 7.292969 16.667969 Z M 7.292969 0.519531 "/>
<path style=" stroke:none;fill-rule:nonzero;fill:rgb(33.333334%,54.509807%,18.431373%);fill-opacity:1;" d="M 6.769531 0 L 6.769531 17.1875 L 18.230469 17.1875 L 18.230469 0 Z M 17.1875 16.144531 L 7.8125 16.144531 L 7.8125 1.042969 L 17.1875 1.042969 Z M 17.1875 16.144531 "/>
<path style=" stroke:none;fill-rule:nonzero;fill:rgb(33.333334%,54.509807%,18.431373%);fill-opacity:1;" d="M 17.707031 1.5625 C 17.707031 2.449219 17.550781 3.125 16.667969 3.125 C 15.78125 3.125 15.105469 2.449219 15.105469 1.5625 C 15.105469 0.675781 15.78125 0.519531 16.667969 0.519531 C 17.550781 0.519531 17.707031 0.675781 17.707031 1.5625 Z M 8.332031 0.519531 C 9.21875 0.519531 9.894531 0.675781 9.894531 1.5625 C 9.894531 2.449219 9.21875 3.125 8.332031 3.125 C 7.449219 3.125 7.292969 2.449219 7.292969 1.5625 C 7.292969 0.675781 7.449219 0.519531 8.332031 0.519531 Z M 8.332031 0.519531 "/>
<path style=" stroke:none;fill-rule:nonzero;fill:rgb(33.333334%,54.509807%,18.431373%);fill-opacity:1;" d="M 11.457031 4.167969 C 11.457031 4.742188 11.925781 5.207031 12.5 5.207031 C 13.074219 5.207031 13.542969 4.742188 13.542969 4.167969 C 13.542969 3.589844 13.074219 3.125 12.5 3.125 C 11.925781 3.125 11.457031 3.589844 11.457031 4.167969 Z M 11.457031 4.167969 "/>
<path style=" stroke:none;fill-rule:nonzero;fill:rgb(33.333334%,54.509807%,18.431373%);fill-opacity:1;" d="M 9.375 10.417969 C 9.375 12.140625 10.773438 13.542969 12.5 13.542969 C 14.226562 13.542969 15.625 12.140625 15.625 10.417969 C 15.625 8.691406 14.226562 7.292969 12.5 7.292969 C 10.773438 7.292969 9.375 8.691406 9.375 10.417969 Z M 9.375 10.417969 "/>
<path style=" stroke:none;fill-rule:nonzero;fill:rgb(81.176472%,84.705883%,86.274511%);fill-opacity:1;" d="M 20.832031 21.355469 L 4.167969 21.355469 C 3.019531 21.355469 2.082031 20.417969 2.082031 19.269531 L 2.082031 8.855469 L 12.5 15.625 L 22.917969 8.855469 L 22.917969 19.269531 C 22.917969 20.417969 21.980469 21.355469 20.832031 21.355469 Z M 20.832031 21.355469 "/>
</g>
</svg>
