<?xml version="1.0" encoding="UTF-8"?>
<svg xmlns="http://www.w3.org/2000/svg" xmlns:xlink="http://www.w3.org/1999/xlink" width="px" height="24px" viewBox="0 0 24 24" version="1.1">
<g id="surface1">
<path style=" stroke:none;fill-rule:nonzero;fill:rgb(94.901961%,53.333336%,21.960784%);fill-opacity:1;" d="M 10.816406 14.632812 L 4.269531 14.632812 C 4.105469 14.632812 3.972656 14.765625 3.972656 14.929688 L 3.972656 18.925781 C 3.972656 19.089844 4.105469 19.222656 4.269531 19.222656 L 10.816406 19.222656 C 10.980469 19.222656 11.113281 19.089844 11.113281 18.925781 L 11.113281 14.929688 C 11.113281 14.765625 10.980469 14.632812 10.816406 14.632812 Z M 10.816406 14.632812 "/>
<path style=" stroke:none;fill-rule:nonzero;fill:rgb(29.411766%,68.627453%,47.058824%);fill-opacity:1;" d="M 13.078125 5.34375 L 19.625 5.34375 C 19.789062 5.34375 19.921875 5.476562 19.921875 5.636719 L 19.921875 9.636719 C 19.921875 9.800781 19.789062 9.933594 19.625 9.933594 L 13.078125 9.933594 C 12.914062 9.933594 12.78125 9.800781 12.78125 9.636719 L 12.78125 5.636719 C 12.78125 5.476562 12.914062 5.34375 13.078125 5.34375 Z M 13.078125 5.34375 "/>
<path style=" stroke:none;fill-rule:nonzero;fill:rgb(100%,72.549021%,18.039216%);fill-opacity:1;" d="M 19.921875 13.414062 C 19.921875 13.125 19.6875 12.890625 19.398438 12.890625 L 11.636719 12.890625 C 11.347656 12.890625 11.113281 13.125 11.113281 13.414062 L 11.113281 18.699219 C 11.113281 18.988281 11.347656 19.222656 11.636719 19.222656 L 19.398438 19.222656 C 19.6875 19.222656 19.921875 18.988281 19.921875 18.699219 Z M 19.921875 13.414062 "/>
<path style=" stroke:none;fill-rule:nonzero;fill:rgb(100%,72.549021%,18.039216%);fill-opacity:1;" d="M 3.972656 4.125 C 3.972656 3.835938 4.207031 3.601562 4.496094 3.601562 L 12.257812 3.601562 C 12.546875 3.601562 12.78125 3.835938 12.78125 4.125 L 12.78125 9.410156 C 12.78125 9.699219 12.546875 9.933594 12.257812 9.933594 L 4.496094 9.933594 C 4.207031 9.933594 3.972656 9.699219 3.972656 9.410156 Z M 3.972656 4.125 "/>
<path style=" stroke:none;fill-rule:nonzero;fill:rgb(93.725491%,44.313726%,11.372549%);fill-opacity:1;" d="M 5.015625 18.925781 L 5.015625 14.929688 C 5.015625 14.765625 5.148438 14.632812 5.3125 14.632812 L 4.269531 14.632812 C 4.105469 14.632812 3.972656 14.765625 3.972656 14.929688 L 3.972656 18.925781 C 3.972656 19.089844 4.105469 19.222656 4.269531 19.222656 L 5.3125 19.222656 C 5.148438 19.222656 5.015625 19.089844 5.015625 18.925781 Z M 5.015625 18.925781 "/>
<path style=" stroke:none;fill-rule:nonzero;fill:rgb(16.078432%,60.000002%,33.725491%);fill-opacity:1;" d="M 13.824219 9.636719 L 13.824219 5.636719 C 13.824219 5.476562 13.957031 5.34375 14.121094 5.34375 L 13.078125 5.34375 C 12.914062 5.34375 12.78125 5.472656 12.78125 5.636719 L 12.78125 9.636719 C 12.78125 9.800781 12.914062 9.933594 13.078125 9.933594 L 14.121094 9.933594 C 13.957031 9.933594 13.824219 9.800781 13.824219 9.636719 Z M 13.824219 9.636719 "/>
<path style=" stroke:none;fill-rule:nonzero;fill:rgb(93.725491%,60.392159%,11.372549%);fill-opacity:1;" d="M 12.15625 18.699219 L 12.15625 13.414062 C 12.15625 13.125 12.390625 12.890625 12.679688 12.890625 L 11.636719 12.890625 C 11.347656 12.890625 11.113281 13.125 11.113281 13.414062 L 11.113281 18.699219 C 11.113281 18.988281 11.347656 19.222656 11.636719 19.222656 L 12.679688 19.222656 C 12.390625 19.222656 12.15625 18.988281 12.15625 18.699219 Z M 12.15625 18.699219 "/>
<path style=" stroke:none;fill-rule:nonzero;fill:rgb(93.725491%,60.392159%,11.372549%);fill-opacity:1;" d="M 5.015625 9.410156 L 5.015625 4.125 C 5.015625 3.835938 5.25 3.601562 5.539062 3.601562 L 4.496094 3.601562 C 4.207031 3.601562 3.972656 3.835938 3.972656 4.125 L 3.972656 9.410156 C 3.972656 9.699219 4.207031 9.933594 4.496094 9.933594 L 5.539062 9.933594 C 5.25 9.933594 5.015625 9.699219 5.015625 9.410156 Z M 5.015625 9.410156 "/>
<path style=" stroke:none;fill-rule:nonzero;fill:rgb(48.627451%,47.843137%,45.882353%);fill-opacity:1;" d="M 16.339844 17.992188 L 14.695312 17.992188 C 14.523438 17.992188 14.382812 18.132812 14.382812 18.304688 L 14.382812 19.222656 L 16.652344 19.222656 L 16.652344 18.304688 C 16.652344 18.132812 16.511719 17.992188 16.339844 17.992188 Z M 16.339844 17.992188 "/>
<path style=" stroke:none;fill-rule:nonzero;fill:rgb(48.627451%,47.843137%,45.882353%);fill-opacity:1;" d="M 14.382812 12.890625 L 14.382812 15.082031 C 14.382812 15.203125 14.453125 15.3125 14.558594 15.367188 C 14.667969 15.417969 14.796875 15.402344 14.890625 15.328125 L 15.519531 14.832031 L 16.148438 15.328125 C 16.203125 15.375 16.273438 15.398438 16.339844 15.398438 C 16.386719 15.398438 16.433594 15.386719 16.476562 15.367188 C 16.585938 15.3125 16.652344 15.203125 16.652344 15.082031 L 16.652344 12.890625 Z M 14.382812 12.890625 "/>
<path style=" stroke:none;fill-rule:nonzero;fill:rgb(48.627451%,47.843137%,45.882353%);fill-opacity:1;" d="M 7.242188 3.601562 L 7.242188 5.792969 C 7.242188 5.914062 7.3125 6.023438 7.417969 6.074219 C 7.460938 6.097656 7.507812 6.105469 7.554688 6.105469 C 7.625 6.105469 7.691406 6.082031 7.75 6.039062 L 8.378906 5.542969 L 9.003906 6.039062 C 9.101562 6.113281 9.226562 6.128906 9.335938 6.074219 C 9.445312 6.023438 9.511719 5.914062 9.511719 5.792969 L 9.511719 3.601562 C 9.511719 3.601562 7.242188 3.601562 7.242188 3.601562 Z M 7.242188 3.601562 "/>
<path style=" stroke:none;fill-rule:nonzero;fill:rgb(48.627451%,47.843137%,45.882353%);fill-opacity:1;" d="M 9.199219 8.699219 L 7.554688 8.699219 C 7.382812 8.699219 7.242188 8.839844 7.242188 9.015625 L 7.242188 9.933594 L 9.511719 9.933594 L 9.511719 9.015625 C 9.511719 8.839844 9.371094 8.699219 9.199219 8.699219 Z M 9.199219 8.699219 "/>
<path style=" stroke:none;fill-rule:nonzero;fill:rgb(48.627451%,47.843137%,45.882353%);fill-opacity:1;" d="M 3.804688 11.347656 L 1.417969 13.738281 L 1.417969 11.347656 Z M 3.804688 11.347656 "/>
<path style=" stroke:none;fill-rule:nonzero;fill:rgb(48.627451%,47.843137%,45.882353%);fill-opacity:1;" d="M 20.195312 11.347656 L 22.582031 13.738281 L 22.582031 11.347656 Z M 20.195312 11.347656 "/>
<path style=" stroke:none;fill-rule:nonzero;fill:rgb(48.627451%,47.843137%,45.882353%);fill-opacity:1;" d="M 3.804688 2.058594 L 1.417969 4.445312 L 1.417969 2.058594 Z M 3.804688 2.058594 "/>
<path style=" stroke:none;fill-rule:nonzero;fill:rgb(48.627451%,47.843137%,45.882353%);fill-opacity:1;" d="M 20.195312 2.058594 L 22.582031 4.445312 L 22.582031 2.058594 Z M 20.195312 2.058594 "/>
<path style=" stroke:none;fill-rule:nonzero;fill:rgb(48.627451%,47.843137%,45.882353%);fill-opacity:1;" d="M 3.804688 20.640625 L 1.417969 23.027344 L 1.417969 20.640625 Z M 3.804688 20.640625 "/>
<path style=" stroke:none;fill-rule:nonzero;fill:rgb(41.960785%,40.784314%,38.039216%);fill-opacity:1;" d="M 2.511719 11.347656 L 1.417969 11.347656 L 1.417969 13.738281 L 2.511719 12.640625 Z M 2.511719 11.347656 "/>
<path style=" stroke:none;fill-rule:nonzero;fill:rgb(41.960785%,40.784314%,38.039216%);fill-opacity:1;" d="M 2.511719 2.058594 L 1.417969 2.058594 L 1.417969 4.445312 L 2.511719 3.351562 Z M 2.511719 2.058594 "/>
<path style=" stroke:none;fill-rule:nonzero;fill:rgb(41.960785%,40.784314%,38.039216%);fill-opacity:1;" d="M 2.511719 20.640625 L 1.417969 20.640625 L 1.417969 23.027344 L 2.511719 21.933594 Z M 2.511719 20.640625 "/>
<path style=" stroke:none;fill-rule:nonzero;fill:rgb(48.627451%,47.843137%,45.882353%);fill-opacity:1;" d="M 20.195312 20.640625 L 22.582031 23.027344 L 22.582031 20.640625 Z M 20.195312 20.640625 "/>
<path style=" stroke:none;fill-rule:nonzero;fill:rgb(98.823529%,64.313728%,40.784314%);fill-opacity:1;" d="M 8.792969 18.074219 L 6.546875 18.074219 C 6.332031 18.074219 6.15625 17.898438 6.15625 17.683594 C 6.15625 17.464844 6.332031 17.289062 6.546875 17.289062 L 8.792969 17.289062 C 9.007812 17.289062 9.183594 17.464844 9.183594 17.683594 C 9.183594 17.898438 9.007812 18.074219 8.792969 18.074219 Z M 8.792969 18.074219 "/>
<path style=" stroke:none;fill-rule:nonzero;fill:rgb(38.039216%,78.823531%,55.29412%);fill-opacity:1;" d="M 17.347656 8.78125 L 15.105469 8.78125 C 14.886719 8.78125 14.710938 8.605469 14.710938 8.390625 C 14.710938 8.175781 14.886719 8 15.105469 8 L 17.347656 8 C 17.5625 8 17.738281 8.175781 17.738281 8.390625 C 17.738281 8.605469 17.5625 8.78125 17.347656 8.78125 Z M 17.347656 8.78125 "/>
<path style=" stroke:none;fill-rule:nonzero;fill:rgb(80.000001%,76.47059%,65.882355%);fill-opacity:1;" d="M 4.175781 9.933594 L 0.863281 9.933594 L 0.863281 11.402344 L 23.265625 11.402344 L 23.265625 9.933594 Z M 4.175781 9.933594 "/>
<path style=" stroke:none;fill-rule:nonzero;fill:rgb(80.000001%,76.47059%,65.882355%);fill-opacity:1;" d="M 4.175781 19.222656 L 0.863281 19.222656 L 0.863281 20.691406 L 23.265625 20.691406 L 23.265625 19.222656 Z M 4.175781 19.222656 "/>
<path style=" stroke:none;fill-rule:nonzero;fill:rgb(80.000001%,76.47059%,65.882355%);fill-opacity:1;" d="M 19.953125 0.640625 L 0.863281 0.640625 L 0.863281 2.109375 L 23.265625 2.109375 L 23.265625 0.640625 Z M 19.953125 0.640625 "/>
<path style=" stroke:none;fill-rule:nonzero;fill:rgb(78.823531%,70.980394%,52.156866%);fill-opacity:1;" d="M 1.105469 9.933594 L 0.863281 9.933594 L 0.863281 11.402344 L 2.511719 11.402344 L 2.511719 9.933594 Z M 1.105469 9.933594 "/>
<path style=" stroke:none;fill-rule:nonzero;fill:rgb(78.823531%,70.980394%,52.156866%);fill-opacity:1;" d="M 1.105469 19.222656 L 0.863281 19.222656 L 0.863281 20.691406 L 2.511719 20.691406 L 2.511719 19.222656 Z M 1.105469 19.222656 "/>
<path style=" stroke:none;fill-rule:nonzero;fill:rgb(78.823531%,70.980394%,52.156866%);fill-opacity:1;" d="M 2.269531 0.640625 L 0.863281 0.640625 L 0.863281 2.109375 L 2.511719 2.109375 L 2.511719 0.640625 Z M 2.269531 0.640625 "/>
<path style=" stroke:none;fill-rule:nonzero;fill:rgb(21.176471%,63.137257%,79.607844%);fill-opacity:1;" d="M 24 4.242188 L 24 0.652344 C 24 0.292969 23.707031 0 23.347656 0 L 23.183594 0 C 22.824219 0 22.53125 0.292969 22.53125 0.652344 L 22.53125 23.347656 C 22.53125 23.707031 22.824219 24 23.183594 24 L 23.347656 24 C 23.707031 24 24 23.707031 24 23.347656 L 24 5.582031 "/>
<path style=" stroke:none;fill-rule:nonzero;fill:rgb(21.176471%,63.137257%,79.607844%);fill-opacity:1;" d="M 0 0.652344 L 0 23.347656 C 0 23.707031 0.292969 24 0.652344 24 L 0.816406 24 C 1.175781 24 1.46875 23.707031 1.46875 23.347656 L 1.46875 0.652344 C 1.46875 0.292969 1.175781 0 0.816406 0 L 0.652344 0 C 0.292969 0 0 0.292969 0 0.652344 Z M 0 0.652344 "/>
<path style=" stroke:none;fill-rule:nonzero;fill:rgb(91.764706%,39.215687%,15.686275%);fill-opacity:1;" d="M 10.816406 14.632812 L 4.269531 14.632812 C 4.105469 14.632812 3.972656 14.765625 3.972656 14.929688 L 3.972656 16.246094 L 11.113281 16.246094 L 11.113281 14.929688 C 11.113281 14.765625 10.980469 14.632812 10.816406 14.632812 Z M 10.816406 14.632812 "/>
<path style=" stroke:none;fill-rule:nonzero;fill:rgb(86.666667%,30.19608%,7.843138%);fill-opacity:1;" d="M 5.015625 14.929688 C 5.015625 14.765625 5.148438 14.632812 5.3125 14.632812 L 4.269531 14.632812 C 4.105469 14.632812 3.972656 14.765625 3.972656 14.929688 L 3.972656 16.246094 L 5.015625 16.246094 Z M 5.015625 14.929688 "/>
<path style=" stroke:none;fill-rule:nonzero;fill:rgb(11.764706%,51.372552%,30.588236%);fill-opacity:1;" d="M 13.078125 5.34375 L 19.625 5.34375 C 19.789062 5.34375 19.921875 5.476562 19.921875 5.636719 L 19.921875 6.957031 L 12.78125 6.957031 L 12.78125 5.636719 C 12.78125 5.476562 12.914062 5.34375 13.078125 5.34375 Z M 13.078125 5.34375 "/>
<path style=" stroke:none;fill-rule:nonzero;fill:rgb(7.843138%,45.882353%,25.098041%);fill-opacity:1;" d="M 13.824219 5.636719 C 13.824219 5.476562 13.957031 5.34375 14.121094 5.34375 L 13.078125 5.34375 C 12.914062 5.34375 12.78125 5.472656 12.78125 5.636719 L 12.78125 6.957031 L 13.824219 6.957031 Z M 13.824219 5.636719 "/>
<path style=" stroke:none;fill-rule:nonzero;fill:rgb(37.64706%,36.862746%,35.294119%);fill-opacity:1;" d="M 8.378906 8.699219 L 7.554688 8.699219 C 7.382812 8.699219 7.242188 8.839844 7.242188 9.015625 L 7.242188 9.933594 L 8.378906 9.933594 Z M 8.378906 8.699219 "/>
<path style=" stroke:none;fill-rule:nonzero;fill:rgb(37.64706%,36.862746%,35.294119%);fill-opacity:1;" d="M 8.378906 3.601562 L 7.242188 3.601562 L 7.242188 5.792969 C 7.242188 5.914062 7.308594 6.023438 7.417969 6.074219 C 7.460938 6.097656 7.507812 6.105469 7.554688 6.105469 C 7.625 6.105469 7.691406 6.082031 7.75 6.039062 L 8.378906 5.542969 Z M 8.378906 3.601562 "/>
<path style=" stroke:none;fill-rule:nonzero;fill:rgb(37.64706%,36.862746%,35.294119%);fill-opacity:1;" d="M 15.519531 17.992188 L 14.695312 17.992188 C 14.523438 17.992188 14.382812 18.132812 14.382812 18.304688 L 14.382812 19.222656 L 15.519531 19.222656 Z M 15.519531 17.992188 "/>
<path style=" stroke:none;fill-rule:nonzero;fill:rgb(37.64706%,36.862746%,35.294119%);fill-opacity:1;" d="M 15.519531 12.890625 L 14.382812 12.890625 L 14.382812 15.082031 C 14.382812 15.203125 14.453125 15.3125 14.558594 15.367188 C 14.667969 15.417969 14.796875 15.402344 14.890625 15.328125 L 15.519531 14.832031 Z M 15.519531 12.890625 "/>
</g>
</svg>
