<?xml version="1.0" encoding="UTF-8"?>
<svg xmlns="http://www.w3.org/2000/svg" xmlns:xlink="http://www.w3.org/1999/xlink" width="px" height="24px" viewBox="0 0 24 24" version="1.1">
<g id="surface1">
<path style=" stroke:none;fill-rule:nonzero;fill:rgb(100%,100%,100%);fill-opacity:1;" d="M 9.890625 17.273438 C 9.890625 17.269531 9.894531 17.269531 9.894531 17.265625 C 9.890625 17.15625 9.878906 17.050781 9.878906 16.945312 C 9.878906 13.050781 13.046875 9.886719 16.9375 9.886719 C 17.042969 9.886719 17.152344 9.894531 17.257812 9.902344 C 17.261719 9.902344 17.265625 9.898438 17.273438 9.898438 C 17.289062 9.703125 17.292969 9.511719 17.292969 9.320312 C 17.292969 4.921875 13.714844 1.339844 9.316406 1.339844 C 4.566406 1.332031 1.371094 5.28125 1.332031 9.3125 C 1.339844 14.121094 5.226562 17.292969 9.3125 17.292969 C 9.503906 17.296875 9.699219 17.289062 9.890625 17.273438 Z M 9.890625 17.273438 "/>
<path style=" stroke:none;fill-rule:nonzero;fill:rgb(100%,75.686276%,5.098039%);fill-opacity:1;" d="M 22.664062 16.941406 C 22.664062 13.785156 20.09375 11.214844 16.9375 11.214844 C 13.78125 11.214844 11.210938 13.78125 11.210938 16.941406 C 11.210938 20.097656 13.78125 22.667969 16.9375 22.667969 C 20.09375 22.667969 22.664062 20.097656 22.664062 16.941406 Z M 22.664062 16.941406 "/>
<path style=" stroke:none;fill-rule:nonzero;fill:rgb(33.725491%,67.450982%,87.843138%);fill-opacity:1;" d="M 9.3125 2.660156 C 6.179688 2.660156 3.554688 4.839844 2.851562 7.761719 L 5.386719 7.761719 C 5.753906 7.761719 6.054688 8.058594 6.054688 8.429688 C 6.054688 8.800781 5.757812 9.097656 5.386719 9.097656 L 2.679688 9.097656 C 2.679688 9.171875 2.671875 9.242188 2.671875 9.3125 C 2.671875 9.683594 2.710938 10.042969 2.765625 10.402344 L 3.667969 10.402344 C 4.035156 10.402344 4.335938 10.699219 4.335938 11.070312 C 4.335938 11.4375 4.039062 11.738281 3.667969 11.738281 L 3.121094 11.738281 C 4.011719 14.003906 6.101562 15.660156 8.605469 15.925781 C 9.070312 12.105469 12.105469 9.074219 15.917969 8.613281 C 15.570312 5.261719 12.742188 2.660156 9.3125 2.660156 Z M 9.3125 2.660156 "/>
<path style=" stroke:none;fill-rule:nonzero;fill:rgb(9.803922%,30.980393%,50.980395%);fill-opacity:1;" d="M 16.9375 14.652344 C 17.386719 14.652344 17.757812 15.015625 17.757812 15.46875 C 17.757812 15.835938 18.050781 16.136719 18.425781 16.136719 C 18.792969 16.136719 19.089844 15.839844 19.089844 15.46875 C 19.089844 14.519531 18.46875 13.707031 17.609375 13.429688 L 17.609375 13.089844 C 17.609375 12.722656 17.3125 12.421875 16.941406 12.421875 C 16.574219 12.421875 16.273438 12.71875 16.273438 13.089844 L 16.273438 13.429688 C 15.414062 13.714844 14.792969 14.519531 14.792969 15.46875 C 14.792969 16.65625 15.757812 17.621094 16.941406 17.621094 C 16.921875 17.621094 16.941406 17.621094 16.945312 17.621094 C 17.355469 17.664062 17.761719 18.003906 17.761719 18.425781 C 17.761719 18.875 17.394531 19.242188 16.941406 19.242188 C 16.492188 19.242188 16.125 18.878906 16.125 18.425781 C 16.125 18.058594 15.828125 17.757812 15.457031 17.757812 C 15.085938 17.757812 14.789062 18.054688 14.789062 18.425781 C 14.789062 19.375 15.414062 20.1875 16.269531 20.464844 L 16.269531 20.804688 C 16.269531 21.171875 16.566406 21.472656 16.9375 21.472656 C 17.304688 21.472656 17.605469 21.175781 17.605469 20.804688 L 17.605469 20.464844 C 18.46875 20.179688 19.085938 19.375 19.085938 18.425781 C 19.085938 17.242188 18.042969 16.28125 16.859375 16.28125 C 16.875 16.28125 16.863281 16.28125 16.855469 16.28125 C 16.445312 16.238281 16.125 15.894531 16.125 15.464844 C 16.125 15.015625 16.492188 14.652344 16.9375 14.652344 Z M 16.9375 14.652344 "/>
<path style=" stroke:none;fill-rule:nonzero;fill:rgb(9.803922%,30.980393%,50.980395%);fill-opacity:1;" d="M 13.542969 9.3125 C 13.542969 8.945312 13.246094 8.644531 12.875 8.644531 L 9.984375 8.644531 L 9.984375 3.683594 C 9.984375 3.316406 9.6875 3.015625 9.316406 3.015625 C 8.941406 3.015625 8.648438 3.3125 8.648438 3.683594 L 8.648438 9.3125 C 8.648438 9.679688 8.941406 9.980469 9.316406 9.980469 L 12.875 9.980469 C 13.238281 9.984375 13.542969 9.679688 13.542969 9.3125 Z M 13.542969 9.3125 "/>
<path style=" stroke:none;fill-rule:nonzero;fill:rgb(9.803922%,30.980393%,50.980395%);fill-opacity:1;" d="M 18.585938 10.085938 C 18.609375 9.832031 18.625 9.574219 18.625 9.316406 C 18.625 4.179688 14.445312 0.00390625 9.3125 0.00390625 C 4.175781 0.00390625 0 4.179688 0 9.3125 C 0 14.445312 4.175781 18.625 9.3125 18.625 C 9.566406 18.625 9.824219 18.605469 10.082031 18.582031 C 10.828125 21.683594 13.613281 23.996094 16.941406 23.996094 C 20.835938 23.996094 24 20.832031 24 16.941406 C 23.996094 13.617188 21.6875 10.832031 18.585938 10.085938 Z M 9.894531 17.265625 C 9.894531 17.269531 9.886719 17.269531 9.890625 17.273438 C 9.699219 17.289062 9.503906 17.292969 9.316406 17.292969 C 5.230469 17.292969 1.339844 14.121094 1.335938 9.3125 C 1.367188 5.28125 4.558594 1.332031 9.3125 1.332031 C 13.710938 1.332031 17.289062 4.914062 17.289062 9.3125 C 17.289062 9.507812 17.285156 9.699219 17.269531 9.890625 C 17.265625 9.890625 17.261719 9.894531 17.253906 9.894531 C 17.148438 9.890625 17.039062 9.878906 16.933594 9.878906 C 13.042969 9.878906 9.875 13.042969 9.875 16.9375 C 9.878906 17.050781 9.890625 17.152344 9.894531 17.265625 Z M 16.9375 22.667969 C 13.785156 22.667969 11.210938 20.097656 11.210938 16.941406 C 11.210938 13.78125 13.78125 11.214844 16.9375 11.214844 C 20.09375 11.214844 22.664062 13.78125 22.664062 16.941406 C 22.664062 20.097656 20.09375 22.667969 16.9375 22.667969 Z M 16.9375 22.667969 "/>
</g>
</svg>
