<?xml version="1.0" encoding="UTF-8"?>
<svg xmlns="http://www.w3.org/2000/svg" xmlns:xlink="http://www.w3.org/1999/xlink" width="24px" height="24px" viewBox="0 0 24 24" version="1.1">
<g id="surface1">
<path style=" stroke:none;fill-rule:nonzero;fill:rgb(92.54902%,92.941177%,93.725491%);fill-opacity:1;" d="M 4.71875 0 C 4.054688 0 3.515625 0.539062 3.515625 1.199219 L 3.515625 22.800781 C 3.515625 23.460938 4.054688 24 4.71875 24 L 22.316406 24 C 22.980469 24 23.515625 23.460938 23.515625 22.800781 L 23.515625 4 L 19.515625 0 Z M 4.71875 0 "/>
<path style=" stroke:none;fill-rule:nonzero;fill:rgb(85.09804%,86.274511%,87.450981%);fill-opacity:1;" d="M 20.71875 4 L 23.515625 4 L 19.515625 0 L 19.515625 2.800781 C 19.515625 3.460938 20.054688 4 20.71875 4 Z M 20.71875 4 "/>
<path style=" stroke:none;fill-rule:nonzero;fill:rgb(77.64706%,79.215688%,81.176472%);fill-opacity:1;" d="M 18.71875 2 L 3.515625 2 L 3.515625 9.199219 L 18.71875 9.199219 C 18.9375 9.199219 19.117188 9.019531 19.117188 8.800781 L 19.117188 2.398438 C 19.117188 2.179688 18.9375 2 18.71875 2 Z M 18.71875 2 "/>
<path style=" stroke:none;fill-rule:nonzero;fill:rgb(32.156864%,61.960787%,26.666668%);fill-opacity:1;" d="M 17.917969 8.398438 L 0.882812 8.398438 C 0.527344 8.398438 0.347656 7.96875 0.601562 7.71875 L 3.515625 4.800781 L 0.601562 1.882812 C 0.347656 1.628906 0.527344 1.199219 0.882812 1.199219 L 17.917969 1.199219 C 18.136719 1.199219 18.316406 1.378906 18.316406 1.601562 L 18.316406 8 C 18.316406 8.222656 18.136719 8.398438 17.917969 8.398438 Z M 17.917969 8.398438 "/>
<path style=" stroke:none;fill-rule:nonzero;fill:rgb(100%,100%,100%);fill-opacity:1;" d="M 8.71875 3.601562 L 7.117188 3.601562 C 6.898438 3.601562 6.71875 3.777344 6.71875 4 C 6.71875 4.222656 6.898438 4.398438 7.117188 4.398438 L 7.515625 4.398438 L 7.515625 6.398438 C 7.515625 6.621094 7.695312 6.800781 7.917969 6.800781 C 8.136719 6.800781 8.316406 6.621094 8.316406 6.398438 L 8.316406 4.398438 L 8.71875 4.398438 C 8.9375 4.398438 9.117188 4.222656 9.117188 4 C 9.117188 3.777344 8.9375 3.601562 8.71875 3.601562 Z M 8.71875 3.601562 "/>
<path style=" stroke:none;fill-rule:nonzero;fill:rgb(100%,100%,100%);fill-opacity:1;" d="M 14.316406 3.601562 L 12.71875 3.601562 C 12.496094 3.601562 12.316406 3.777344 12.316406 4 C 12.316406 4.222656 12.496094 4.398438 12.71875 4.398438 L 13.117188 4.398438 L 13.117188 6.398438 C 13.117188 6.621094 13.296875 6.800781 13.515625 6.800781 C 13.738281 6.800781 13.917969 6.621094 13.917969 6.398438 L 13.917969 4.398438 L 14.316406 4.398438 C 14.539062 4.398438 14.71875 4.222656 14.71875 4 C 14.71875 3.777344 14.539062 3.601562 14.316406 3.601562 Z M 14.316406 3.601562 "/>
<path style=" stroke:none;fill-rule:nonzero;fill:rgb(100%,100%,100%);fill-opacity:1;" d="M 11.738281 3.667969 C 11.554688 3.542969 11.308594 3.59375 11.183594 3.777344 L 10.71875 4.480469 L 10.25 3.777344 C 10.128906 3.59375 9.878906 3.542969 9.695312 3.667969 C 9.511719 3.789062 9.460938 4.039062 9.585938 4.222656 L 10.238281 5.199219 L 9.585938 6.179688 C 9.472656 6.347656 9.507812 6.578125 9.664062 6.707031 C 9.84375 6.855469 10.121094 6.816406 10.25 6.621094 L 10.71875 5.921875 L 11.183594 6.621094 C 11.316406 6.816406 11.59375 6.855469 11.773438 6.707031 C 11.929688 6.578125 11.960938 6.347656 11.851562 6.179688 L 11.199219 5.199219 L 11.851562 4.222656 C 11.972656 4.039062 11.921875 3.789062 11.738281 3.667969 Z M 11.738281 3.667969 "/>
<path style=" stroke:none;fill-rule:nonzero;fill:rgb(77.64706%,79.215688%,81.176472%);fill-opacity:1;" d="M 15.515625 21.601562 L 7.515625 21.601562 C 7.296875 21.601562 7.117188 21.421875 7.117188 21.199219 L 7.117188 10.800781 C 7.117188 10.578125 7.296875 10.398438 7.515625 10.398438 L 15.519531 10.398438 C 15.738281 10.398438 15.917969 10.578125 15.917969 10.800781 L 15.917969 21.199219 C 15.917969 21.421875 15.738281 21.601562 15.515625 21.601562 Z M 15.515625 21.601562 "/>
<path style=" stroke:none;fill-rule:nonzero;fill:rgb(70.19608%,72.549021%,74.901962%);fill-opacity:1;" d="M 8.117188 20.800781 C 8.007812 20.800781 7.917969 20.710938 7.917969 20.601562 L 7.917969 10.398438 L 7.515625 10.398438 C 7.296875 10.398438 7.117188 10.578125 7.117188 10.800781 L 7.117188 21.199219 C 7.117188 21.421875 7.296875 21.601562 7.515625 21.601562 L 15.519531 21.601562 C 15.738281 21.601562 15.917969 21.421875 15.917969 21.199219 L 15.917969 20.800781 Z M 8.117188 20.800781 "/>
<path style=" stroke:none;fill-rule:nonzero;fill:rgb(48.235294%,51.764709%,56.078434%);fill-opacity:1;" d="M 13.917969 12.800781 L 9.117188 12.800781 C 8.898438 12.800781 8.71875 12.621094 8.71875 12.398438 C 8.71875 12.179688 8.898438 12 9.117188 12 L 13.917969 12 C 14.136719 12 14.316406 12.179688 14.316406 12.398438 C 14.316406 12.621094 14.136719 12.800781 13.917969 12.800781 Z M 13.917969 12.800781 "/>
<path style=" stroke:none;fill-rule:nonzero;fill:rgb(48.235294%,51.764709%,56.078434%);fill-opacity:1;" d="M 13.917969 15.199219 L 9.117188 15.199219 C 8.898438 15.199219 8.71875 15.019531 8.71875 14.800781 C 8.71875 14.578125 8.898438 14.398438 9.117188 14.398438 L 13.917969 14.398438 C 14.136719 14.398438 14.316406 14.578125 14.316406 14.800781 C 14.316406 15.019531 14.136719 15.199219 13.917969 15.199219 Z M 13.917969 15.199219 "/>
<path style=" stroke:none;fill-rule:nonzero;fill:rgb(48.235294%,51.764709%,56.078434%);fill-opacity:1;" d="M 13.917969 17.601562 L 9.117188 17.601562 C 8.898438 17.601562 8.71875 17.421875 8.71875 17.199219 C 8.71875 16.980469 8.898438 16.800781 9.117188 16.800781 L 13.917969 16.800781 C 14.136719 16.800781 14.316406 16.980469 14.316406 17.199219 C 14.316406 17.421875 14.136719 17.601562 13.917969 17.601562 Z M 13.917969 17.601562 "/>
<path style=" stroke:none;fill-rule:nonzero;fill:rgb(48.235294%,51.764709%,56.078434%);fill-opacity:1;" d="M 13.917969 20 L 9.117188 20 C 8.898438 20 8.71875 19.820312 8.71875 19.601562 C 8.71875 19.378906 8.898438 19.199219 9.117188 19.199219 L 13.917969 19.199219 C 14.136719 19.199219 14.316406 19.378906 14.316406 19.601562 C 14.316406 19.820312 14.136719 20 13.917969 20 Z M 13.917969 20 "/>
<path style=" stroke:none;fill-rule:nonzero;fill:rgb(100%,76.862746%,30.980393%);fill-opacity:1;" d="M 18.234375 11.585938 L 11.726562 18.09375 L 10.753906 20.234375 C 10.601562 20.570312 10.949219 20.914062 11.285156 20.761719 L 13.425781 19.789062 L 19.929688 13.285156 C 20.085938 13.128906 20.085938 12.875 19.929688 12.71875 L 18.796875 11.585938 C 18.640625 11.429688 18.390625 11.429688 18.234375 11.585938 Z M 18.234375 11.585938 "/>
<path style=" stroke:none;fill-rule:nonzero;fill:rgb(23.529412%,62.352943%,90.980393%);fill-opacity:1;" d="M 13.425781 19.789062 L 11.726562 18.09375 L 18.234375 11.585938 C 18.390625 11.429688 18.640625 11.429688 18.796875 11.585938 L 19.929688 12.71875 C 20.085938 12.875 20.085938 13.128906 19.929688 13.285156 Z M 13.425781 19.789062 "/>
<path style=" stroke:none;fill-rule:nonzero;fill:rgb(70.19608%,72.549021%,74.901962%);fill-opacity:1;" d="M 18.796875 14.414062 L 17.101562 12.71875 L 18.234375 11.585938 C 18.390625 11.429688 18.640625 11.429688 18.796875 11.585938 L 19.929688 12.71875 C 20.085938 12.875 20.085938 13.128906 19.929688 13.285156 Z M 18.796875 14.414062 "/>
<path style=" stroke:none;fill-rule:nonzero;fill:rgb(100%,76.862746%,30.980393%);fill-opacity:1;" d="M 10.753906 20.234375 L 11.726562 18.09375 L 13.425781 19.789062 L 11.285156 20.761719 C 10.949219 20.914062 10.601562 20.570312 10.753906 20.234375 Z M 10.753906 20.234375 "/>
<path style=" stroke:none;fill-rule:nonzero;fill:rgb(25.882354%,49.803922%,78.823531%);fill-opacity:1;" d="M 19.929688 13.285156 C 20.085938 13.128906 20.085938 12.875 19.929688 12.71875 L 19.648438 12.4375 L 12.859375 19.222656 L 13.425781 19.789062 Z M 19.929688 13.285156 "/>
<path style=" stroke:none;fill-rule:nonzero;fill:rgb(63.137257%,65.490198%,68.627453%);fill-opacity:1;" d="M 19.929688 13.285156 C 20.085938 13.128906 20.085938 12.875 19.929688 12.71875 L 19.648438 12.4375 L 18.234375 13.851562 L 18.796875 14.414062 Z M 19.929688 13.285156 "/>
<path style=" stroke:none;fill-rule:nonzero;fill:rgb(96.862745%,62.352943%,30.19608%);fill-opacity:1;" d="M 12.859375 19.222656 L 11.351562 20.734375 L 13.425781 19.789062 Z M 12.859375 19.222656 "/>
</g>
</svg>
